<svg width="431" height="246" viewBox="0 0 431 246" fill="none" xmlns="http://www.w3.org/2000/svg">
<g clip-path="url(#clip0_32_295)">
<path d="M350.188 84.5625C335.38 84.5625 321.534 88.6292 309.581 95.6017L257.238 15.375H331.116C331.016 19.2034 330.123 25.6071 325.736 30.6424C321.218 35.8161 313.914 38.4375 304.009 38.4375C302.988 38.4375 302.01 38.8425 301.288 39.5633C300.566 40.2842 300.161 41.2618 300.161 42.2812C300.161 43.3007 300.566 44.2783 301.288 44.9992C302.01 45.72 302.988 46.125 304.009 46.125C316.239 46.125 325.497 42.6195 331.531 35.7008C340.482 25.4303 338.689 11.5928 338.604 11.0085C338.478 10.0887 338.023 9.24573 337.322 8.63527C336.622 8.02482 335.724 7.68816 334.795 7.6875H250.134C249.438 7.68263 248.754 7.86706 248.155 8.22101C247.556 8.57495 247.065 9.08505 246.735 9.6966C246.404 10.3081 246.246 10.9981 246.278 11.6924C246.31 12.3866 246.531 13.0591 246.917 13.6376L268.705 47.0321H146.602L122.873 7.6875H165.473C166.494 7.6875 167.473 7.28253 168.194 6.56169C168.916 5.84085 169.321 4.86318 169.321 3.84375C169.321 2.82432 168.916 1.84665 168.194 1.12581C167.473 0.404965 166.494 0 165.473 0L96.2054 0C95.1848 0 94.2059 0.404965 93.4843 1.12581C92.7626 1.84665 92.3571 2.82432 92.3571 3.84375C92.3571 4.86318 92.7626 5.84085 93.4843 6.56169C94.2059 7.28253 95.1848 7.6875 96.2054 7.6875H114.015C114.092 7.86431 114.107 8.0565 114.207 8.22563L140.468 51.7523L116.963 93.1879C105.754 87.5276 93.3722 84.5733 80.8125 84.5625C36.2502 84.5625 0 120.771 0 165.281C0 209.792 36.2502 246 80.8125 246C123.82 246 158.985 212.244 161.009 169.125H246.286C246.509 173.576 245.547 179.642 241.329 184.415C236.773 189.574 229.377 192.188 219.348 192.188C218.328 192.188 217.349 192.592 216.627 193.313C215.905 194.034 215.5 195.012 215.5 196.031C215.5 197.051 215.905 198.028 216.627 198.749C217.349 199.47 218.328 199.875 219.348 199.875C231.724 199.875 241.083 196.362 247.163 189.435C255.952 179.411 254.298 166.096 254.228 165.535C254.107 164.61 253.653 163.76 252.95 163.145C252.248 162.529 251.345 162.19 250.411 162.191H220.179L274.416 55.7959L303.124 99.7991C282.728 114.459 269.375 138.314 269.375 165.281C269.375 209.792 305.625 246 350.188 246C394.75 246 431 209.792 431 165.281C431 120.771 394.75 84.5625 350.188 84.5625ZM266.335 53.8125L213.63 158.117L151.243 53.8125H266.335ZM145.024 59.3091L207.096 162.191H161.471C160.965 149.066 157.257 136.263 150.668 124.897C144.079 113.53 134.81 103.943 123.666 96.9701L145.024 59.3091ZM153.775 162.191H86.6695L119.872 103.651C129.833 109.952 138.118 118.567 144.022 128.761C149.926 138.955 153.272 150.425 153.775 162.191ZM80.8125 238.312C40.4986 238.312 7.69643 205.548 7.69643 165.281C7.69643 125.014 40.4986 92.25 80.8125 92.25C92.4341 92.25 103.394 95.0482 113.168 99.8837L76.718 164.136C76.3851 164.72 76.212 165.381 76.216 166.053C76.2201 166.725 76.4012 167.384 76.7411 167.964C77.4261 169.14 78.696 169.871 80.0659 169.117H153.698C151.304 208.001 119.579 238.312 80.8125 238.312ZM350.188 238.312C309.874 238.312 277.071 205.548 277.071 165.281C277.071 141.012 289.032 119.525 307.334 106.241L347.717 168.133C348.277 168.984 349.151 169.58 350.148 169.79C351.146 170.001 352.186 169.808 353.043 169.256C353.895 168.696 354.491 167.824 354.702 166.827C354.912 165.831 354.72 164.791 354.167 163.936L313.783 102.044C324.841 95.6304 337.401 92.2516 350.188 92.25C390.501 92.25 423.304 125.014 423.304 165.281C423.304 205.548 390.501 238.312 350.188 238.312Z" fill="black"/>
</g>
<defs>
<clipPath id="clip0_32_295">
<rect width="431" height="246" fill="white"/>
</clipPath>
</defs>
</svg>
