<svg width="100" height="100" viewBox="0 0 100 100" fill="none" xmlns="http://www.w3.org/2000/svg">
<path d="M34.8667 19.9583L23.4667 16.1541C22.2139 15.7369 20.8799 15.6233 19.5746 15.8227C18.2693 16.0222 17.0301 16.5289 15.9591 17.3013C14.8881 18.0736 14.016 19.0894 13.4146 20.2649C12.8131 21.4404 12.4997 22.742 12.5 24.0625V73.1583C12.4996 74.908 13.0499 76.6134 14.073 78.0329C15.096 79.4523 16.54 80.5137 18.2 81.0666L34.8667 86.6208C36.5761 87.1901 38.4239 87.1901 40.1333 86.6208L59.8667 80.0458C61.5761 79.4764 63.4239 79.4764 65.1333 80.0458L76.5333 83.8458C77.7864 84.2631 79.1208 84.3767 80.4264 84.177C81.732 83.9774 82.9715 83.4702 84.0426 82.6974C85.1137 81.9246 85.9857 80.9083 86.5869 79.7322C87.188 78.5562 87.501 77.2541 87.5 75.9333V26.8416C87.5007 25.0924 86.951 23.3874 85.9287 21.968C84.9064 20.5486 83.4634 19.4869 81.8042 18.9333L65.1375 13.3791C63.4268 12.8088 61.5773 12.8088 59.8667 13.3791L40.1292 19.9541C38.4198 20.5235 36.5719 20.5235 34.8625 19.9541L34.8667 19.9583Z" stroke="black" stroke-width="6" stroke-linecap="round" stroke-linejoin="round"/>
<path d="M37.5 20.8333V87.5M62.5 12.5V79.1667" stroke="black" stroke-width="6" stroke-linejoin="round"/>
</svg>
