<svg width="100" height="100" viewBox="0 0 100 100" fill="none" xmlns="http://www.w3.org/2000/svg">
<path d="M22.6563 91.4063C26.5192 91.4063 30.2953 90.2608 33.5072 88.1146C36.7191 85.9685 39.2225 82.9182 40.7008 79.3493C42.1791 75.7804 42.5658 71.8533 41.8122 68.0646C41.0586 64.276 39.1984 60.7958 36.4669 58.0643C33.7354 55.3328 30.2553 53.4727 26.4666 52.719C22.6779 51.9654 18.7508 52.3522 15.182 53.8305C11.6131 55.3088 8.56273 57.8121 6.41661 61.024C4.27049 64.2359 3.125 68.0121 3.125 71.875C3.13084 77.0532 5.19047 82.0177 8.85202 85.6792C12.5136 89.3408 17.478 91.4004 22.6563 91.4063ZM22.6563 58.5938C25.283 58.5938 27.8508 59.3727 30.0349 60.832C32.219 62.2914 33.9213 64.3657 34.9265 66.7925C35.9318 69.2193 36.1948 71.8897 35.6823 74.466C35.1698 77.0424 33.9049 79.4088 32.0475 81.2663C30.1901 83.1237 27.8236 84.3886 25.2473 84.9011C22.671 85.4135 20.0006 85.1505 17.5737 84.1453C15.1469 83.1401 13.0727 81.4378 11.6133 79.2537C10.1539 77.0696 9.375 74.5018 9.375 71.875C9.37898 68.3538 10.7795 64.978 13.2694 62.4881C15.7592 59.9983 19.1351 58.5977 22.6563 58.5938ZM57.8125 71.875C57.8125 75.7379 58.958 79.5141 61.1041 82.726C63.2502 85.9379 66.3006 88.4412 69.8695 89.9195C73.4383 91.3978 77.3654 91.7846 81.1541 91.031C84.9428 90.2773 88.4229 88.4172 91.1544 85.6857C93.8859 82.9542 95.7461 79.4741 96.4997 75.6854C97.2533 71.8967 96.8666 67.9696 95.3883 64.4007C93.91 60.8319 91.4066 57.7815 88.1947 55.6354C84.9828 53.4892 81.2067 52.3438 77.3438 52.3438C72.1655 52.3496 67.2011 54.4092 63.5395 58.0708C59.878 61.7323 57.8183 66.6968 57.8125 71.875ZM77.3438 58.5938C79.9705 58.5938 82.5383 59.3727 84.7224 60.832C86.9065 62.2914 88.6088 64.3657 89.614 66.7925C90.6193 69.2193 90.8823 71.8897 90.3698 74.466C89.8573 77.0424 88.5924 79.4088 86.735 81.2663C84.8776 83.1237 82.5111 84.3886 79.9348 84.9011C77.3585 85.4135 74.6881 85.1505 72.2612 84.1453C69.8344 83.1401 67.7602 81.4378 66.3008 79.2537C64.8414 77.0696 64.0625 74.5018 64.0625 71.875C64.0665 68.3538 65.467 64.978 67.9569 62.4881C70.4467 59.9983 73.8226 58.5977 77.3438 58.5938Z" fill="black"/>
<path d="M62.0924 25.0344C65.7694 25.0344 68.7502 22.0536 68.7502 18.3766C68.7502 14.6996 65.7694 11.7188 62.0924 11.7188C58.4154 11.7188 55.4346 14.6996 55.4346 18.3766C55.4346 22.0536 58.4154 25.0344 62.0924 25.0344Z" fill="black"/>
<path d="M37.2955 52.0118L46.8748 61.4629V78.9063H53.1248V60.8096C53.1231 60.189 52.999 59.5748 52.7596 59.0022C52.5202 58.4297 52.1701 57.91 51.7295 57.4729L41.715 47.5924L54.6941 34.6133L66.0545 46.2444C66.4921 46.6901 67.0138 47.0445 67.5895 47.2868C68.1651 47.5292 68.7832 47.6548 69.4078 47.6563H74.9998V41.4063H70.0658L52.002 22.9125L51.9092 23.0032L50.2686 21.3625L28.3936 43.2376L37.2322 52.0762L37.2955 52.0118Z" fill="black"/>
</svg>
