<svg width="84" height="84" viewBox="0 0 84 84" fill="none" xmlns="http://www.w3.org/2000/svg">
<path d="M39.865 36.365L26.25 49.9695L12.635 36.365C9.94375 33.6724 8.11126 30.2424 7.36923 26.5085C6.6272 22.7746 7.00894 18.9046 8.46619 15.3876C9.92344 11.8707 12.3908 8.86475 15.5562 6.74993C18.7217 4.63511 22.4431 3.50635 26.25 3.50635C30.0569 3.50635 33.7783 4.63511 36.9438 6.74993C40.1092 8.86475 42.5766 11.8707 44.0338 15.3876C45.4911 18.9046 45.8728 22.7746 45.1308 26.5085C44.3888 30.2424 42.5563 33.6724 39.865 36.365ZM26.25 29.75C28.1065 29.75 29.887 29.0125 31.1998 27.6997C32.5125 26.3869 33.25 24.6065 33.25 22.75C33.25 20.8934 32.5125 19.113 31.1998 17.8002C29.887 16.4875 28.1065 15.75 26.25 15.75C24.3935 15.75 22.613 16.4875 21.3003 17.8002C19.9875 19.113 19.25 20.8934 19.25 22.75C19.25 24.6065 19.9875 26.3869 21.3003 27.6997C22.613 29.0125 24.3935 29.75 26.25 29.75ZM71.365 67.865L57.75 81.473L44.135 67.8615C41.4438 65.1689 39.6113 61.7389 38.8692 58.005C38.1272 54.2711 38.5089 50.4011 39.9662 46.8841C41.4235 43.3672 43.8908 40.3612 47.0562 38.2464C50.2217 36.1316 53.9431 35.0028 57.75 35.0028C61.5569 35.0028 65.2784 36.1316 68.4438 38.2464C71.6093 40.3612 74.0766 43.3672 75.5338 46.8841C76.9911 50.4011 77.3728 54.2711 76.6308 58.005C75.8888 61.7389 74.0563 65.1689 71.365 67.8615V67.865ZM57.75 61.25C59.6065 61.25 61.387 60.5125 62.6998 59.1997C64.0125 57.8869 64.75 56.1065 64.75 54.25C64.75 52.3934 64.0125 50.613 62.6998 49.3002C61.387 47.9875 59.6065 47.25 57.75 47.25C55.8935 47.25 54.113 47.9875 52.8003 49.3002C51.4875 50.613 50.75 52.3934 50.75 54.25C50.75 56.1065 51.4875 57.8869 52.8003 59.1997C54.113 60.5125 55.8935 61.25 57.75 61.25Z" fill="black"/>
</svg>
